<?xml version="1.0" standalone="no"?><!DOCTYPE svg PUBLIC "-//W3C//DTD SVG 1.1//EN" "http://www.w3.org/Graphics/SVG/1.1/DTD/svg11.dtd"><svg t="1589360914457" class="icon" viewBox="0 0 1024 1024" version="1.1" xmlns="http://www.w3.org/2000/svg" p-id="1409" width="200" height="200"><path d="M241.654 685.114c-5.215 0.318-10.447 0.318-15.662 0h-0.138c-30.055-1.872-59.575-14.286-82.54-37.252-49.988-49.987-49.988-131.032 0-181.019 9.297-9.298 19.669-16.866 30.716-22.705L174 444l2.378-1.072a127.08 127.08 0 0 1 9.728-4.384L610 247.5l0.06 0.278c83.34-36.126 183.856-20.126 251.983 48.002 89.04 89.04 89.04 233.4 0 322.44-43.719 43.72-100.776 65.972-158.072 66.758l0.029 0.136H241.654zM233.824 637c44.182 0 80-35.817 80-80s-35.818-80-80-80c-44.184 0-80 35.817-80 80s35.816 80 80 80z m467-28c83.946 0 152-68.053 152-152s-68.054-152-152-152c-83.948 0-152 68.053-152 152s68.052 152 152 152zM192 719.555h656v80c0 8.837-7.163 16-16 16H176v-80c0-8.837 7.163-16 16-16z" p-id="1410" fill="#ffffff"></path></svg>
